<svg width="101" height="37" viewBox="0 0 101 37" fill="none" xmlns="http://www.w3.org/2000/svg">
<path d="M12.2786 6.5625H10.1394V7.63208H12.2786V6.5625Z" fill="black"/>
<path d="M12.2786 8.70166H10.1394V9.77124H12.2786V8.70166Z" fill="black"/>
<path d="M12.2786 10.8408H10.1394V11.9104H12.2786V10.8408Z" fill="black"/>
<path d="M19.7656 7.09717H18.696C18.6957 7.38074 18.5829 7.65259 18.3824 7.85311C18.1819 8.05362 17.91 8.16642 17.6265 8.16675V9.23634C18.1936 9.2357 18.7373 9.01012 19.1384 8.60908C19.5394 8.20805 19.765 7.66432 19.7656 7.09717Z" fill="black"/>
<path d="M22.4397 9.771V8.70142C22.1561 8.70108 21.8843 8.58829 21.6838 8.38777C21.4833 8.18726 21.3705 7.9154 21.3701 7.63184H20.3005C20.3012 8.19898 20.5268 8.74272 20.9278 9.14375C21.3288 9.54479 21.8726 9.77037 22.4397 9.771Z" fill="black"/>
<path d="M28.0544 33.0503C27.1516 33.2144 26.2307 33.2555 25.3168 33.1726L16.0181 32.3272C15.8687 32.3136 15.7302 32.2429 15.6315 32.1298C15.5329 32.0167 15.4816 31.8699 15.4883 31.72C15.4951 31.57 15.5594 31.4285 15.6679 31.3247C15.7763 31.221 15.9206 31.1631 16.0707 31.163H23.2418C23.5965 31.1624 23.9364 31.0212 24.1871 30.7703C24.4377 30.5194 24.5786 30.1793 24.5788 29.8247V29.8122C24.5782 29.5312 24.4871 29.2579 24.3188 29.0327L23.0944 27.4008C23.0168 27.297 22.9747 27.1709 22.9745 27.0412V26.9495C22.9744 26.8309 23.0096 26.715 23.0755 26.6164C23.1414 26.5178 23.235 26.4409 23.3446 26.3955C23.4542 26.3501 23.5748 26.3382 23.6911 26.3614C23.8074 26.3845 23.9142 26.4416 23.9981 26.5255L26.3398 28.8672C26.3895 28.9168 26.4485 28.9562 26.5133 28.9831C26.5782 29.01 26.6478 29.0238 26.718 29.0238H32.6007V27.9542H26.9395L24.7545 25.7691C24.6995 25.7142 24.6408 25.6632 24.5788 25.6164V13.5148C24.5788 13.373 24.5225 13.237 24.4222 13.1367C24.3219 13.0364 24.1859 12.98 24.044 12.98H23.5092V11.3756H24.3114C24.8079 11.3756 25.2839 11.1784 25.635 10.8274C25.986 10.4764 26.1832 10.0003 26.1832 9.50387C26.1832 9.00745 25.986 8.53136 25.635 8.18033C25.2839 7.8293 24.8079 7.6321 24.3114 7.6321H24.2561C24.5239 7.31127 24.6616 6.90169 24.642 6.48428C24.6224 6.06686 24.447 5.67197 24.1504 5.37761C23.8538 5.08326 23.4576 4.91084 23.04 4.89443C22.6225 4.87802 22.214 5.0188 21.8952 5.28898C21.8446 4.75926 21.5984 4.26742 21.2046 3.90948C20.8109 3.55155 20.2978 3.35322 19.7657 3.35322C19.2336 3.35322 18.7205 3.55155 18.3268 3.90948C17.933 4.26742 17.6868 4.75926 17.6362 5.28898C17.3174 5.0188 16.9089 4.87802 16.4914 4.89443C16.0738 4.91084 15.6776 5.08326 15.381 5.37761C15.0844 5.67197 14.909 6.06686 14.8894 6.48428C14.8698 6.90169 15.0075 7.31127 15.2752 7.6321H15.22C14.9424 7.63185 14.6683 7.69368 14.4178 7.81306V5.49293C14.4178 4.64192 14.0797 3.82576 13.478 3.224C12.8762 2.62224 12.06 2.28418 11.209 2.28418C10.358 2.28418 9.54185 2.62224 8.94009 3.224C8.33834 3.82576 8.00027 4.64192 8.00027 5.49293V12.98H7.46548C7.32364 12.98 7.18762 13.0364 7.08733 13.1367C6.98703 13.237 6.93069 13.373 6.93069 13.5148V15.8664L4.05892 18.3279H0.513184V19.3975H4.25673C4.38438 19.3975 4.50782 19.3519 4.60474 19.2688L7.7044 16.6119C8.02306 16.339 8.42879 16.1889 8.84839 16.1888C8.89219 16.1888 8.93501 16.2018 8.97143 16.2261C9.00785 16.2505 9.03623 16.285 9.05299 16.3255C9.06975 16.366 9.07413 16.4105 9.06558 16.4535C9.05702 16.4964 9.03593 16.5359 9.00495 16.5669L7.08732 18.4846C7.01252 18.5594 6.96158 18.6547 6.94095 18.7584C6.92031 18.8621 6.9309 18.9697 6.97138 19.0674C7.01186 19.1651 7.08041 19.2486 7.16836 19.3074C7.25631 19.3662 7.35971 19.3975 7.46548 19.3975H13.0808C13.1517 19.3975 13.2197 19.4257 13.2699 19.4758C13.32 19.526 13.3482 19.594 13.3482 19.6649C13.3482 19.7358 13.32 19.8039 13.2699 19.854C13.2197 19.9041 13.1517 19.9323 13.0808 19.9323H9.06986C8.92802 19.9323 8.79199 19.9887 8.6917 20.089C8.59141 20.1892 8.53506 20.3253 8.53506 20.4671C8.53506 20.6089 8.59141 20.745 8.6917 20.8453C8.79199 20.9456 8.92802 21.0019 9.06986 21.0019H14.6852C14.7561 21.0019 14.8241 21.0301 14.8743 21.0802C14.9244 21.1304 14.9526 21.1984 14.9526 21.2693C14.9526 21.3402 14.9244 21.4082 14.8743 21.4584C14.8241 21.5085 14.7561 21.5367 14.6852 21.5367H9.06986C8.92802 21.5367 8.79199 21.593 8.6917 21.6933C8.59141 21.7936 8.53506 21.9297 8.53506 22.0715C8.53506 22.2133 8.59141 22.3493 8.6917 22.4496C8.79199 22.5499 8.92802 22.6063 9.06986 22.6063H13.6156C13.6865 22.6063 13.7545 22.6345 13.8047 22.6846C13.8548 22.7347 13.883 22.8028 13.883 22.8737C13.883 22.9446 13.8548 23.0126 13.8047 23.0628C13.7545 23.1129 13.6865 23.1411 13.6156 23.1411H9.06986C8.92802 23.1411 8.79199 23.1974 8.6917 23.2977C8.59141 23.398 8.53506 23.534 8.53506 23.6759C8.53506 23.8177 8.59141 23.9537 8.6917 24.054C8.79199 24.1543 8.92802 24.2107 9.06986 24.2107H11.7104C11.7186 24.2111 11.7264 24.2145 11.7322 24.2203C11.7381 24.226 11.7416 24.2338 11.7421 24.242C11.7426 24.2502 11.7401 24.2583 11.735 24.2648C11.7299 24.2712 11.7226 24.2756 11.7145 24.277L8.04212 24.736L4.4038 23.6965C4.35597 23.6828 4.30647 23.6759 4.25673 23.6759H0.513184V24.7454H4.18186L6.93069 25.5309V30.6282H6.93196C6.93145 30.6984 6.9449 30.7681 6.97152 30.8331C6.99813 30.8981 7.03739 30.9572 7.08702 31.007C7.13665 31.0567 7.19565 31.0961 7.26062 31.1229C7.32558 31.1497 7.39522 31.1633 7.46548 31.163H14.5247C14.4347 31.4012 14.401 31.6571 14.4262 31.9105C14.4515 32.164 14.535 32.4082 14.6702 32.624C14.8054 32.8398 14.9887 33.0215 15.2057 33.1548C15.4228 33.2881 15.6677 33.3694 15.9213 33.3924L25.22 34.238C25.5584 34.2688 25.8973 34.2842 26.2367 34.2842C26.9105 34.2842 27.5829 34.2235 28.2458 34.103L32.6964 33.2938L32.505 32.2415L28.0544 33.0503ZM13.3482 10.8409C13.3484 10.6991 13.4047 10.5631 13.505 10.4629C13.6053 10.3626 13.7412 10.3062 13.883 10.3061H14.9526C15.5197 10.3067 16.0635 10.5323 16.4645 10.9333C16.8655 11.3343 17.0911 11.8781 17.0917 12.4452C17.0916 12.587 17.0352 12.7229 16.9349 12.8232C16.8347 12.9235 16.6987 12.9799 16.5569 12.98H15.4874C14.9202 12.9794 14.3765 12.7538 13.9754 12.3528C13.5744 11.9517 13.3488 11.408 13.3482 10.8409ZM15.22 8.70168H16.5569C16.6627 8.70169 16.7661 8.67033 16.8541 8.61156C16.942 8.5528 17.0106 8.46927 17.051 8.37155C17.0915 8.27383 17.1021 8.1663 17.0815 8.06255C17.0608 7.95881 17.0099 7.86352 16.9351 7.78873L16.1329 6.98654C16.0772 6.93086 16.0331 6.86475 16.0029 6.792C15.9728 6.71924 15.9573 6.64126 15.9573 6.56252C15.9573 6.48377 15.9728 6.40579 16.0029 6.33304C16.0331 6.26028 16.0772 6.19418 16.1329 6.13849C16.1886 6.08281 16.2547 6.03864 16.3275 6.0085C16.4002 5.97837 16.4782 5.96286 16.5569 5.96286C16.6357 5.96286 16.7137 5.97837 16.7864 6.0085C16.8592 6.03864 16.9253 6.08281 16.981 6.13849L17.7832 6.94068C17.8579 7.01548 17.9532 7.06641 18.057 7.08705C18.1607 7.10769 18.2683 7.0971 18.366 7.05662C18.4637 7.01614 18.5472 6.94759 18.606 6.85964C18.6648 6.77169 18.6961 6.66829 18.6961 6.56252V5.49293C18.6961 5.20926 18.8088 4.93721 19.0094 4.73662C19.21 4.53604 19.482 4.42335 19.7657 4.42335C20.0494 4.42335 20.3214 4.53604 20.522 4.73662C20.7226 4.93721 20.8353 5.20926 20.8353 5.49293V6.56252C20.8353 6.66829 20.8666 6.77169 20.9254 6.85964C20.9842 6.94759 21.0677 7.01614 21.1654 7.05662C21.2631 7.0971 21.3707 7.10769 21.4744 7.08705C21.5782 7.06641 21.6734 7.01548 21.7482 6.94068L22.5504 6.13849C22.6061 6.08281 22.6722 6.03864 22.745 6.0085C22.8177 5.97837 22.8957 5.96286 22.9745 5.96286C23.0532 5.96286 23.1312 5.97837 23.2039 6.0085C23.2767 6.03864 23.3428 6.08281 23.3985 6.13849C23.4542 6.19418 23.4983 6.26028 23.5285 6.33304C23.5586 6.40579 23.5741 6.48377 23.5741 6.56252C23.5741 6.64126 23.5586 6.71924 23.5285 6.792C23.4983 6.86475 23.4542 6.93086 23.3985 6.98654L22.5963 7.78873C22.5215 7.86352 22.4706 7.95881 22.4499 8.06255C22.4293 8.1663 22.4399 8.27383 22.4803 8.37155C22.5208 8.46927 22.5894 8.5528 22.6773 8.61156C22.7653 8.67033 22.8687 8.70169 22.9745 8.70168H24.3114C24.5242 8.70168 24.7282 8.7862 24.8787 8.93664C25.0291 9.08708 25.1136 9.29112 25.1136 9.50387C25.1136 9.71663 25.0291 9.92067 24.8787 10.0711C24.7282 10.2215 24.5242 10.3061 24.3114 10.3061H22.9745C22.8326 10.3061 22.6966 10.3624 22.5963 10.4627C22.496 10.563 22.4397 10.699 22.4397 10.8409V11.1257C21.8156 10.5653 20.9966 10.2721 20.1587 10.3092C19.3208 10.3463 18.5309 10.7108 17.9589 11.3242C17.7297 10.7117 17.3191 10.1836 16.782 9.8106C16.2448 9.43755 15.6066 9.23726 14.9526 9.23648H14.4646C14.5199 9.08028 14.6222 8.94502 14.7575 8.84928C14.8927 8.75353 15.0543 8.70197 15.22 8.70168ZM22.3719 12.98H18.229C18.3475 12.5206 18.6152 12.1137 18.9902 11.8231C19.3652 11.5325 19.8261 11.3748 20.3005 11.3748C20.7749 11.3748 21.2358 11.5325 21.6108 11.8231C21.9858 12.1137 22.2535 12.5206 22.3719 12.98ZM9.06986 5.49293C9.06986 4.92559 9.29523 4.38148 9.6964 3.98031C10.0976 3.57914 10.6417 3.35376 11.209 3.35376C11.7764 3.35376 12.3205 3.57914 12.7216 3.98031C13.1228 4.38148 13.3482 4.92559 13.3482 5.49293V9.32846C13.0356 9.43937 12.7651 9.64426 12.5736 9.91504C12.3821 10.1858 12.279 10.5092 12.2786 10.8409C12.278 11.6307 12.57 12.3928 13.0982 12.98H9.06986V5.49293ZM10.1394 14.0496H11.209V18.3279H10.1394V14.0496ZM8.84839 15.1192C8.56068 15.1193 8.27468 15.1634 8.00027 15.2498V14.0496H9.06986V15.1396C8.99676 15.1264 8.92266 15.1196 8.84839 15.1192ZM9.06986 18.0147V18.3279H8.75654L9.06986 18.0147ZM10.1394 25.5518L11.209 25.4181V29.337L10.1394 28.2674V25.5518ZM8.06659 25.8109L9.06986 25.6855V28.2675L8.00027 29.337V25.815C8.02244 25.815 8.04459 25.8136 8.06659 25.8109ZM8.75654 30.0934L9.60465 29.2453L10.4528 30.0934H8.75654ZM12.2786 25.1877C12.4415 25.0898 12.5762 24.9514 12.6699 24.7861C12.7636 24.6207 12.813 24.434 12.8134 24.2439C12.8134 24.2328 12.8134 24.2217 12.8129 24.2105H13.6156C13.8156 24.2104 14.0131 24.1655 14.1934 24.079C14.3738 23.9924 14.5324 23.8666 14.6577 23.7106C14.783 23.5547 14.8717 23.3727 14.9173 23.1779C14.9629 22.9831 14.9643 22.7806 14.9213 22.5853C15.2501 22.5263 15.545 22.3464 15.7478 22.0809C15.9506 21.8154 16.0466 21.4836 16.017 21.1508C15.9874 20.818 15.8343 20.5084 15.5878 20.2829C15.3413 20.0573 15.0193 19.9323 14.6852 19.9323H14.391C14.4305 19.7381 14.4263 19.5375 14.3788 19.345C14.3313 19.1526 14.2416 18.9731 14.1162 18.8196C13.9908 18.666 13.8329 18.5423 13.6538 18.4573C13.4747 18.3722 13.279 18.3281 13.0808 18.3279H12.2786V14.0496H23.5092V25.2819C23.0783 25.2992 22.6707 25.4823 22.3717 25.7931C22.0727 26.1039 21.9055 26.5183 21.9049 26.9495V27.0412C21.9056 27.4024 22.0229 27.7536 22.2391 28.0428L23.4635 29.6746C23.4932 29.7144 23.5093 29.7626 23.5094 29.8122V29.8247C23.5095 29.8958 23.4814 29.964 23.4312 30.0144C23.3811 30.0648 23.3129 30.0932 23.2418 30.0934H12.2786V25.1877Z" fill="black"/>
<path d="M45.2378 14.2842V3.62012H48.248C49.1758 3.62012 49.9961 3.8252 50.709 4.23535C51.4219 4.64551 51.9712 5.229 52.3569 5.98584C52.7476 6.74268 52.9453 7.61182 52.9502 8.59326V9.27441C52.9502 10.2803 52.7549 11.1616 52.3643 11.9185C51.9785 12.6753 51.4243 13.2563 50.7017 13.6616C49.9839 14.0669 49.1465 14.2744 48.1895 14.2842H45.2378ZM46.644 4.77734V13.1343H48.1235C49.2075 13.1343 50.0498 12.7974 50.6504 12.1235C51.2559 11.4497 51.5586 10.4902 51.5586 9.24512V8.62256C51.5586 7.41162 51.2729 6.47168 50.7017 5.80273C50.1353 5.12891 49.3296 4.78711 48.2847 4.77734H46.644ZM58.1577 14.4307C57.0835 14.4307 56.2095 14.0791 55.5356 13.376C54.8618 12.668 54.5249 11.7231 54.5249 10.5415V10.2925C54.5249 9.50635 54.6738 8.80566 54.9717 8.19043C55.2744 7.57031 55.6943 7.08691 56.2314 6.74023C56.7734 6.38867 57.3594 6.21289 57.9893 6.21289C59.0195 6.21289 59.8203 6.55225 60.3916 7.23096C60.9629 7.90967 61.2485 8.88135 61.2485 10.146V10.71H55.8799C55.8994 11.4912 56.1265 12.1235 56.561 12.6069C57.0005 13.0854 57.5571 13.3247 58.231 13.3247C58.7095 13.3247 59.1147 13.2271 59.4468 13.0317C59.7788 12.8364 60.0693 12.5776 60.3184 12.2554L61.146 12.8999C60.4819 13.9204 59.4858 14.4307 58.1577 14.4307ZM57.9893 7.32617C57.4424 7.32617 56.9834 7.52637 56.6123 7.92676C56.2412 8.32227 56.0117 8.87891 55.9238 9.59668H59.8936V9.49414C59.8545 8.80566 59.6689 8.27344 59.3369 7.89746C59.0049 7.5166 58.5557 7.32617 57.9893 7.32617ZM64.2954 14.2842H62.9404V3.03418H64.2954V14.2842ZM67.9429 14.2842H66.5879V6.35938H67.9429V14.2842ZM66.478 4.25732C66.478 4.0376 66.5439 3.85205 66.6758 3.70068C66.8125 3.54932 67.0127 3.47363 67.2764 3.47363C67.54 3.47363 67.7402 3.54932 67.877 3.70068C68.0137 3.85205 68.082 4.0376 68.082 4.25732C68.082 4.47705 68.0137 4.66016 67.877 4.80664C67.7402 4.95312 67.54 5.02637 67.2764 5.02637C67.0127 5.02637 66.8125 4.95312 66.6758 4.80664C66.5439 4.66016 66.478 4.47705 66.478 4.25732ZM72.7329 12.4458L74.6958 6.35938H76.0801L73.2383 14.2842H72.2056L69.3345 6.35938H70.7188L72.7329 12.4458ZM80.5698 14.4307C79.4956 14.4307 78.6216 14.0791 77.9478 13.376C77.2739 12.668 76.937 11.7231 76.937 10.5415V10.2925C76.937 9.50635 77.0859 8.80566 77.3838 8.19043C77.6865 7.57031 78.1064 7.08691 78.6436 6.74023C79.1855 6.38867 79.7715 6.21289 80.4014 6.21289C81.4316 6.21289 82.2324 6.55225 82.8037 7.23096C83.375 7.90967 83.6606 8.88135 83.6606 10.146V10.71H78.292C78.3115 11.4912 78.5386 12.1235 78.9731 12.6069C79.4126 13.0854 79.9692 13.3247 80.6431 13.3247C81.1216 13.3247 81.5269 13.2271 81.8589 13.0317C82.1909 12.8364 82.4814 12.5776 82.7305 12.2554L83.5581 12.8999C82.894 13.9204 81.8979 14.4307 80.5698 14.4307ZM80.4014 7.32617C79.8545 7.32617 79.3955 7.52637 79.0244 7.92676C78.6533 8.32227 78.4238 8.87891 78.3359 9.59668H82.3057V9.49414C82.2666 8.80566 82.0811 8.27344 81.749 7.89746C81.417 7.5166 80.9678 7.32617 80.4014 7.32617ZM89.0659 7.5752C88.8608 7.54102 88.6387 7.52393 88.3994 7.52393C87.5107 7.52393 86.9077 7.90234 86.5903 8.65918V14.2842H85.2354V6.35938H86.5537L86.5757 7.2749C87.02 6.56689 87.6499 6.21289 88.4653 6.21289C88.729 6.21289 88.9292 6.24707 89.0659 6.31543V7.5752ZM93.043 12.2993L94.8887 6.35938H96.3389L93.1528 15.5073C92.6597 16.8257 91.876 17.4849 90.8018 17.4849L90.5454 17.4629L90.04 17.3677V16.269L90.4062 16.2983C90.8652 16.2983 91.2217 16.2056 91.4756 16.02C91.7344 15.8345 91.9468 15.4951 92.1128 15.002L92.4131 14.1963L89.5859 6.35938H91.0654L93.043 12.2993ZM51.1191 27.5747H46.644V32.2842H45.2378V21.6201H51.8442V22.7773H46.644V26.4248H51.1191V27.5747ZM52.7964 28.2485C52.7964 27.4722 52.9478 26.7739 53.2505 26.1538C53.5581 25.5337 53.9829 25.0552 54.5249 24.7183C55.0718 24.3813 55.6943 24.2129 56.3926 24.2129C57.4717 24.2129 58.3433 24.5864 59.0073 25.3335C59.6763 26.0806 60.0107 27.0742 60.0107 28.3145V28.4097C60.0107 29.1812 59.8618 29.8745 59.564 30.4897C59.271 31.1001 58.8486 31.5762 58.2969 31.918C57.75 32.2598 57.1201 32.4307 56.4072 32.4307C55.333 32.4307 54.4614 32.0571 53.7925 31.3101C53.1284 30.563 52.7964 29.5742 52.7964 28.3438V28.2485ZM54.1587 28.4097C54.1587 29.2886 54.3613 29.9941 54.7666 30.5264C55.1768 31.0586 55.7236 31.3247 56.4072 31.3247C57.0957 31.3247 57.6426 31.0562 58.0479 30.519C58.4531 29.9771 58.6558 29.2202 58.6558 28.2485C58.6558 27.3794 58.4482 26.6763 58.0332 26.1392C57.623 25.5972 57.0762 25.3262 56.3926 25.3262C55.7236 25.3262 55.1841 25.5923 54.7739 26.1245C54.3638 26.6567 54.1587 27.4185 54.1587 28.4097ZM61.3511 28.2485C61.3511 27.4722 61.5024 26.7739 61.8052 26.1538C62.1128 25.5337 62.5376 25.0552 63.0796 24.7183C63.6265 24.3813 64.249 24.2129 64.9473 24.2129C66.0264 24.2129 66.8979 24.5864 67.562 25.3335C68.231 26.0806 68.5654 27.0742 68.5654 28.3145V28.4097C68.5654 29.1812 68.4165 29.8745 68.1187 30.4897C67.8257 31.1001 67.4033 31.5762 66.8516 31.918C66.3047 32.2598 65.6748 32.4307 64.9619 32.4307C63.8877 32.4307 63.0161 32.0571 62.3472 31.3101C61.6831 30.563 61.3511 29.5742 61.3511 28.3438V28.2485ZM62.7134 28.4097C62.7134 29.2886 62.916 29.9941 63.3213 30.5264C63.7314 31.0586 64.2783 31.3247 64.9619 31.3247C65.6504 31.3247 66.1973 31.0562 66.6025 30.519C67.0078 29.9771 67.2104 29.2202 67.2104 28.2485C67.2104 27.3794 67.0029 26.6763 66.5879 26.1392C66.1777 25.5972 65.6309 25.3262 64.9473 25.3262C64.2783 25.3262 63.7388 25.5923 63.3286 26.1245C62.9185 26.6567 62.7134 27.4185 62.7134 28.4097ZM69.9351 28.2559C69.9351 27.04 70.2231 26.0635 70.7993 25.3262C71.3755 24.584 72.1299 24.2129 73.0625 24.2129C73.9902 24.2129 74.7251 24.5303 75.2671 25.165V21.0342H76.6221V32.2842H75.377L75.311 31.4346C74.769 32.0986 74.0146 32.4307 73.0479 32.4307C72.1299 32.4307 71.3804 32.0547 70.7993 31.3027C70.2231 30.5508 69.9351 29.5693 69.9351 28.3584V28.2559ZM71.29 28.4097C71.29 29.3081 71.4756 30.0112 71.8467 30.519C72.2178 31.0269 72.7305 31.2808 73.3848 31.2808C74.2441 31.2808 74.8716 30.895 75.2671 30.1235V26.4834C74.8618 25.7363 74.2393 25.3628 73.3994 25.3628C72.7354 25.3628 72.2178 25.6191 71.8467 26.1318C71.4756 26.6445 71.29 27.4038 71.29 28.4097Z" fill="black"/>
</svg>
